<svg height="512pt" viewBox="0 0 512 512" width="512pt" xmlns="http://www.w3.org/2000/svg"><path d="m8 8h496v416h-496zm0 0" fill="#ffe082"/><path d="m8 8h496v64h-496zm0 0" fill="#9fa8da"/><g fill="#ff8a65"><path d="m232 472h48v32h-48zm0 0"/><path d="m328 472h48v32h-48zm0 0"/><path d="m40 472h48v32h-48zm0 0"/><path d="m136 472h48v32h-48zm0 0"/><path d="m424 472h48v32h-48zm0 0"/><path d="m232 408h48v32h-48zm0 0"/><path d="m328 408h48v32h-48zm0 0"/><path d="m40 408h48v32h-48zm0 0"/><path d="m136 408h48v32h-48zm0 0"/><path d="m424 408h48v32h-48zm0 0"/><path d="m328 344h48v32h-48zm0 0"/><path d="m136 344h48v32h-48zm0 0"/><path d="m424 344h48v32h-48zm0 0"/><path d="m424 280h48v32h-48zm0 0"/><path d="m328 280h48v32h-48zm0 0"/><path d="m424 216h48v32h-48zm0 0"/><path d="m80 312c0 8.835938-7.164062 16-16 16s-16-7.164062-16-16 7.164062-16 16-16 16 7.164062 16 16zm0 0"/><path d="m176 248c0 8.835938-7.164062 16-16 16s-16-7.164062-16-16 7.164062-16 16-16 16 7.164062 16 16zm0 0"/><path d="m272 312c0 8.835938-7.164062 16-16 16s-16-7.164062-16-16 7.164062-16 16-16 16 7.164062 16 16zm0 0"/><path d="m368 184c0 8.835938-7.164062 16-16 16s-16-7.164062-16-16 7.164062-16 16-16 16 7.164062 16 16zm0 0"/><path d="m464 120c0 8.835938-7.164062 16-16 16s-16-7.164062-16-16 7.164062-16 16-16 16 7.164062 16 16zm0 0"/></g><path d="m160 32h320v16h-320zm0 0" fill="#fff"/><path d="m32 32h16v16h-16zm0 0" fill="#fff"/><path d="m64 32h16v16h-16zm0 0" fill="#fff"/><path d="m96 32h16v16h-16zm0 0" fill="#fff"/><path d="m48 80h16v192h-16zm0 0" fill="#fff"/><path d="m80 80h16v176h-16zm0 0" fill="#fff"/><path d="m112 80h16v144h-16zm0 0" fill="#fff"/><path d="m144 80h16v128h-16zm0 0" fill="#fff"/><path d="m176 80h16v128h-16zm0 0" fill="#fff"/><path d="m208 80h16v168h-16zm0 0" fill="#fff"/><path d="m240 80h16v192h-16zm0 0" fill="#fff"/><path d="m272 80h16v152h-16zm0 0" fill="#fff"/><path d="m304 80h16v80h-16zm0 0" fill="#fff"/><path d="m336 80h16v64h-16zm0 0" fill="#fff"/><path d="m368 80h16v56h-16zm0 0" fill="#fff"/><path d="m400 80h16v32h-16zm0 0" fill="#fff"/><path d="m0 0v432h32v16h64v-48h-64v16h-16v-336h480v336h-16v-16h-64v48h64v-16h32v-432zm48 416h32v16h-32zm416 16h-32v-16h32zm32-368h-480v-48h480zm0 0"/><path d="m224 512h64v-48h-64zm16-32h32v16h-32zm0 0"/><path d="m320 512h64v-48h-64zm16-32h32v16h-32zm0 0"/><path d="m32 512h64v-48h-64zm16-32h32v16h-32zm0 0"/><path d="m128 512h64v-48h-64zm16-32h32v16h-32zm0 0"/><path d="m416 512h64v-48h-64zm16-32h32v16h-32zm0 0"/><path d="m224 448h64v-48h-64zm16-32h32v16h-32zm0 0"/><path d="m320 448h64v-48h-64zm16-32h32v16h-32zm0 0"/><path d="m128 448h64v-48h-64zm16-32h32v16h-32zm0 0"/><path d="m320 384h64v-48h-64zm16-32h32v16h-32zm0 0"/><path d="m128 384h64v-48h-64zm16-32h32v16h-32zm0 0"/><path d="m416 384h64v-48h-64zm16-32h32v16h-32zm0 0"/><path d="m480 272h-64v48h64zm-16 32h-32v-16h32zm0 0"/><path d="m320 320h64v-48h-64zm16-32h32v16h-32zm0 0"/><path d="m480 208h-64v48h64zm-16 32h-32v-16h32zm0 0"/><path d="m160 272c5.167969-.011719 10.191406-1.714844 14.304688-4.847656l58.496093 39c-.511719 1.90625-.78125 3.871094-.800781 5.847656-.015625 10.285156 6.523438 19.4375 16.257812 22.753906 9.734376 3.320313 20.503907.066406 26.769532-8.089844 6.269531-8.15625 6.644531-19.398437.933594-27.953124l68.933593-91.910157c2.292969.761719 4.691407 1.167969 7.105469 1.199219 13.253906 0 24-10.746094 24-24-.019531-1.976562-.289062-3.941406-.800781-5.847656l58.503906-39c4.109375 3.128906 9.128906 4.832031 14.296875 4.847656 13.253906 0 24-10.746094 24-24s-10.746094-24-24-24-24 10.746094-24 24c.019531 1.976562.289062 3.941406.800781 5.847656l-58.503906 39c-4.109375-3.128906-9.128906-4.832031-14.296875-4.847656-8.839844.007812-16.960938 4.878906-21.132812 12.671875-4.171876 7.796875-3.722657 17.253906 1.171874 24.617187l-68.933593 91.910157c-7.296875-2.460938-15.339844-1.089844-21.410157 3.648437l-58.496093-39c.511719-1.90625.78125-3.871094.800781-5.847656 0-13.253906-10.746094-24-24-24s-24 10.746094-24 24c.019531 1.976562.289062 3.941406.800781 5.847656l-58.496093 39c-4.113282-3.132812-9.136719-4.835937-14.304688-4.847656-13.253906 0-24 10.746094-24 24s10.746094 24 24 24 24-10.746094 24-24c-.019531-1.976562-.289062-3.941406-.800781-5.847656l58.503906-39c4.109375 3.128906 9.128906 4.832031 14.296875 4.847656zm288-160c4.417969 0 8 3.582031 8 8s-3.582031 8-8 8-8-3.582031-8-8 3.582031-8 8-8zm-96 64c4.417969 0 8 3.582031 8 8s-3.582031 8-8 8-8-3.582031-8-8 3.582031-8 8-8zm-96 128c4.417969 0 8 3.582031 8 8s-3.582031 8-8 8-8-3.582031-8-8 3.582031-8 8-8zm-96-64c4.417969 0 8 3.582031 8 8s-3.582031 8-8 8-8-3.582031-8-8 3.582031-8 8-8zm-96 80c-4.417969 0-8-3.582031-8-8s3.582031-8 8-8 8 3.582031 8 8-3.582031 8-8 8zm0 0"/></svg>