<svg height="512pt" viewBox="0 0 512 512" width="512pt" xmlns="http://www.w3.org/2000/svg"><path d="m72 376h32v32h-32zm0 0" fill="#c8d1da"/><path d="m8 408h496v32h-496zm0 0" fill="#00c3ff"/><path d="m216 440h80v72h-80zm0 0" fill="#c8d1da"/><path d="m392 376h64v32h-64zm0 0" fill="#c8d1da"/><path d="m8 56h496v320h-496zm0 0" fill="#91e8ed"/><path d="m272 184h-192c-13.253906 0-24 10.746094-24 24s10.746094 24 24 24h80c13.253906 0 24 10.746094 24 24s-10.746094 24-24 24h-32c-13.253906 0-24 10.746094-24 24s10.746094 24 24 24h264zm0 0" fill="#ffea00"/><path d="m512 378.71875-44.320312-44.320312-104-79.511719-21.28125 20.160156 80 104.632813 89.601562 89.601562zm0 0" fill="#ff8a80"/><path d="m363.679688 254.886719-21.28125 20.160156 79.984374 104.609375 45.273438-45.273438zm0 0" fill="#e4e8ed"/><path d="m360.167969 215.601562c15.503906 15.640626 15.449219 40.871094-.125 56.441407-15.570313 15.574219-40.800781 15.628906-56.441407.125-33.59375-33.59375-39.601562-96.167969-39.601562-96.167969s62.398438 5.832031 96.167969 39.601562zm0 0" fill="#50575e"/><path d="m8 56h496v32h-496zm0 0" fill="#00c3ff"/><path d="m120 40h48v80h-48zm0 0" fill="#ffea00"/><path d="m312 40h48v80h-48zm0 0" fill="#ffea00"/><g fill="#fff"><path d="m248 464h16v16h-16zm0 0"/><path d="m248 496h16v16h-16zm0 0"/><path d="m336 144h144v16h-144zm0 0"/><path d="m384 176h96v16h-96zm0 0"/><path d="m432 208h48v16h-48zm0 0"/></g><path d="m512 390.03125v-342.03125h-112v-48h-72v32h-24v16h-96v-48h-72v32h-24v16h-112v336h64v16h-64v48h208v64h16v-64h64v64h16v-64h175.433594l18.910156 18.9375 11.3125-11.3125-76-76 33.976562-33.976562zm-16-326.03125v16h-128v-16zm-152-48h40v32h-16v-16h-24zm-24 32h32v64h-32zm-16 16v16h-128v-16zm-152-48h40v32h-16v-16h-24zm-24 32h32v64h-32zm-112 16h96v16h-96zm0 304v-272h96v32h64v-32h128v32h64v-32h128v255.40625l-22.664062-22.664062-95.039063-72.742188c1.042969-3.953125 1.578125-8.023438 1.597656-12.113281.035157-12.734375-5.027343-24.953125-14.054687-33.933594-35.441406-35.410156-98.433594-41.671875-101.097656-41.953125l-9.597657-.894531.855469 8.894531h-176c-17.671875 0-32 14.328125-32 32s14.328125 32 32 32h80c8.835938 0 16 7.164062 16 16s-7.164062 16-16 16h-32c-17.671875 0-32 14.328125-32 32s14.328125 32 32 32h208v-16h-208c-8.835938 0-16-7.164062-16-16s7.164062-16 16-16h32c17.671875 0 32-14.328125 32-32s-14.328125-32-32-32h-80c-8.835938 0-16-7.164062-16-16s7.164062-16 16-16h178.351562c4 21.464844 14.472657 60.703125 39.59375 85.824219 8.980469 9.027343 21.199219 14.089843 33.933594 14.054687 4.085938-.019531 8.152344-.558594 12.105469-1.597656l59.414063 77.71875zm332-96.703125c-12.5625 7.089844-28.277344 5.140625-38.726562-4.800781-23.304688-23.304688-32.59375-62.585938-35.808594-81.070313 18.457031 3.199219 57.640625 12.398438 81.0625 35.820313 10.351562 10.273437 12.359375 26.285156 4.855468 38.792968l-21.832031-21.824218-11.3125 11.3125zm67.632812 112.703125.40625.535156 15.449219 15.464844h-31.488281v-16zm-31.632812 0v16h-272v-16zm-288 0v16h-16v-16zm351.464844 32 16 16h-447.464844v-16zm-24.265625-48.457031-64.238281-84c2.460937-1.683594 4.761718-3.585938 6.878906-5.6875 2.101562-2.113281 4.007812-4.417969 5.6875-6.878907l84 64.238282zm0 0"/></svg>